<svg xmlns="http://www.w3.org/2000/svg" viewBox="62 48 336 336" width="336" height="336"><rect width="460" height="540" fill="none"></rect><path d="M150,95 L310,95 Q365,95 365,150 L365,300 Q365,360 305,360 L155,360 Q95,360 95,300 L95,150 Q95,95 150,95 Z" fill="none" stroke="#EDE6D6" stroke-width="8" stroke-linecap="round" stroke-linejoin="round"></path><circle cx="179" cy="224" r="22" fill="none" stroke="#EDE6D6" stroke-width="8"></circle><circle cx="179" cy="216" r="5" fill="#EDE6D6" stroke="#EDE6D6" stroke-width="6"></circle><circle cx="281" cy="224" r="22" fill="none" stroke="#EDE6D6" stroke-width="8"></circle><circle cx="281" cy="216" r="5" fill="#EDE6D6" stroke="#EDE6D6" stroke-width="6"></circle><path d="M188,302 q11,-10 21,0 q10,10 21,0 q10,-10 21,0" fill="none" stroke="#EDE6D6" stroke-width="8" stroke-linecap="round" stroke-linejoin="round"></path><path d="M226,255 Q230,267 234,255" fill="none" stroke="#EDE6D6" stroke-width="8" stroke-linecap="round" stroke-linejoin="round"></path><path d="M206,90 q-17,-9 0,-18 q17,-9 0,-18" fill="none" stroke="#EDE6D6" stroke-width="8" stroke-linecap="round" stroke-linejoin="round"></path><path d="M254,90 q17,-9 0,-18 q-17,-9 0,-18" fill="none" stroke="#EDE6D6" stroke-width="8" stroke-linecap="round" stroke-linejoin="round"></path></svg>